<?xml version="1.0" encoding="UTF-8" standalone="no"?>
<!-- Created with Inkscape (http://www.inkscape.org/) -->

<svg
   xmlns:dc="http://purl.org/dc/elements/1.1/"
   xmlns:cc="http://creativecommons.org/ns#"
   xmlns:rdf="http://www.w3.org/1999/02/22-rdf-syntax-ns#"
   xmlns:svg="http://www.w3.org/2000/svg"
   xmlns="http://www.w3.org/2000/svg"
   xmlns:sodipodi="http://sodipodi.sourceforge.net/DTD/sodipodi-0.dtd"
   xmlns:inkscape="http://www.inkscape.org/namespaces/inkscape"
   id="svg3039"
   version="1.1"
   inkscape:version="0.48.2 r9819"
   width="1080"
   height="1080"
   xml:space="preserve"
   sodipodi:docname="coffee-cup.svg"><metadata
     id="metadata3045"><rdf:RDF><cc:Work
         rdf:about=""><dc:format>image/svg+xml</dc:format><dc:type
           rdf:resource="http://purl.org/dc/dcmitype/StillImage" /><dc:title></dc:title></cc:Work></rdf:RDF></metadata><defs
     id="defs3043"><clipPath
       clipPathUnits="userSpaceOnUse"
       id="clipPath3053"><path
         d="M 0,864 864,864 864,0 0,0 0,864 z"
         id="path3055" /></clipPath></defs><sodipodi:namedview
     pagecolor="#ffffff"
     bordercolor="#666666"
     borderopacity="1"
     objecttolerance="10"
     gridtolerance="10"
     guidetolerance="10"
     inkscape:pageopacity="0"
     inkscape:pageshadow="2"
     inkscape:window-width="1583"
     inkscape:window-height="1130"
     id="namedview3041"
     showgrid="false"
     inkscape:zoom="0.63703704"
     inkscape:cx="551.77795"
     inkscape:cy="478.27072"
     inkscape:window-x="0"
     inkscape:window-y="0"
     inkscape:window-maximized="0"
     inkscape:current-layer="g3047"><inkscape:grid
       type="xygrid"
       id="grid3262" /></sodipodi:namedview><g
     id="g3047"
     inkscape:groupmode="layer"
     inkscape:label="robot-juice-2-shirt-flat"
     transform="matrix(1.25,0,0,-1.25,0,1080)"><g
       id="g3067"
       transform="matrix(1.6795964,0,0,1.6795964,4.2698327,229.60456)"><path
         d="m 0,0 c 0,-74.18 114.27,-134.311 255.225,-134.311 140.963,0 255.232,60.131 255.232,134.311 0,74.178 -114.269,134.309 -255.232,134.309 C 114.27,134.309 0,74.178 0,0"
         style="fill:#ffffff;fill-opacity:1;fill-rule:nonzero;stroke:none"
         id="path3069"
         inkscape:connector-curvature="0" /></g><g
       id="g3071"
       transform="matrix(1.6795964,0,0,1.6795964,724.38052,520.078)"><path
         d="M 0,0 C -25.053,-87.699 -46.58,-207.717 -161.588,-211.98 -277.729,-216.277 -335.736,-94.938 -345.541,3.086"
         style="fill:#ffffff;fill-opacity:1;fill-rule:nonzero;stroke:none"
         id="path3073"
         inkscape:connector-curvature="0" /></g><g
       id="g3075"
       transform="matrix(1.6795964,0,0,1.6795964,143.72892,530.34252)"><path
         d="m 0,0 c 0,-50.187 77.385,-90.875 172.841,-90.875 95.456,0 172.837,40.688 172.837,90.875 0,50.189 -77.381,90.875 -172.837,90.875 C 77.385,90.875 0,50.189 0,0"
         style="fill:#ffffff;fill-opacity:1;fill-rule:nonzero;stroke:none"
         id="path3077"
         inkscape:connector-curvature="0" /></g><g
       id="g3079"
       transform="matrix(1.6795964,0,0,1.6795964,162.70633,527.48854)"><path
         d="m 0,0 c 0,-46.834 72.942,-84.804 162.92,-84.804 89.976,0 162.918,37.97 162.918,84.804 0,46.834 -72.942,84.801 -162.918,84.801 C 72.942,84.801 0,46.834 0,0"
         style="fill:#b5a382;fill-opacity:1;fill-rule:nonzero;stroke:none"
         id="path3081"
         inkscape:connector-curvature="0" /></g><g
       id="g3083"
       transform="matrix(1.6795964,0,0,1.6795964,145.91692,508.73753)"><path
         d="m 0,0 c -10.836,5.85 -28.611,3.035 -39.232,-1.738 -12.355,-5.416 -19.942,-17.121 -23.409,-29.908 -3.035,-10.623 -1.734,-24.925 1.516,-35.332 4.77,-14.739 15.537,-23.299 29.262,-31.86 9.377,-5.853 20.808,-7.154 31.863,-5.203 9.32,1.736 24.709,4.983 30.778,12.788 m -15.011,28.477 c -2.837,-1.662 -4.729,-3.876 -8.039,-4.984 -3.312,-1.107 -6.384,-1.666 -9.697,-1.666 -12.058,0 -34.284,12.468 -26.245,30.744 5.439,12.743 20.807,13.293 30.738,9.971 4.494,-1.385 12.296,-4.43 13.48,-10.801"
         style="fill:#ffffff;fill-opacity:1;fill-rule:nonzero;stroke:none"
         id="path3085"
         inkscape:connector-curvature="0" /></g><g
       id="g3087"
       transform="matrix(1.6795964,0,0,1.6795964,723.43893,518.07861)"><path
         d="m 0,0 c -10.646,-37.351 -19.556,-75.345 -34.577,-111.276 -14.581,-34.877 -36.21,-68.648 -70.699,-86.479 -16.659,-8.612 -35.208,-12.455 -53.842,-13.224 -0.913,-0.037 -3.811,-1.483 -1.51,-1.388 38.343,1.58 72.837,17.289 97.566,46.86 24.545,29.349 37.86,66.708 48.757,102.851 6.324,20.973 11.73,42.207 17.735,63.271 C 3.632,1.324 0.249,0.871 0,0"
         style="fill:#493830;fill-opacity:1;fill-rule:nonzero;stroke:none"
         id="path3089"
         inkscape:connector-curvature="0" /></g><g
       id="g3091"
       transform="matrix(1.6795964,0,0,1.6795964,33.806381,396.16107)"><path
         d="m 0,0 c 4.289,-12.57 13.342,-21.226 24.103,-28.532 11.74,-7.972 23.759,-10.765 37.83,-8.493 0.686,0.111 5.684,1.657 3.6,1.32 -7.518,-1.213 -14.922,-0.916 -22.237,1.205 -6.479,1.879 -12.207,6.031 -17.629,9.909 C 16.36,-17.934 8.947,-9.539 5.216,1.397 5.061,1.853 -0.081,0.236 0,0"
         style="fill:#493830;fill-opacity:1;fill-rule:nonzero;stroke:none"
         id="path3093"
         inkscape:connector-curvature="0" /></g><g
       id="g3095"
       transform="matrix(1.6795964,0,0,1.6795964,725.63366,522.64341)"><path
         d="M 0,0 -0.563,-3.432"
         style="fill:none;stroke:#493830;stroke-width:1.79999995;stroke-linecap:butt;stroke-linejoin:miter;stroke-miterlimit:4;stroke-opacity:1;stroke-dasharray:none"
         id="path3097"
         inkscape:connector-curvature="0" /></g><g
       id="g3099"
       transform="matrix(1.6795964,0,0,1.6795964,381.07034,718.84278)"><path
         d="m 0,0 -25.132,22.705 15.331,3.508 1.163,0.267 -0.333,1.145 -8.965,30.806 25.543,-35.042 -17.863,-3.638 -1.57,-0.318 0.832,-1.37 L 0,0 z"
         style="fill:#ffffff;fill-opacity:1;fill-rule:nonzero;stroke:none"
         id="path3101"
         inkscape:connector-curvature="0" /></g><g
       id="g3103"
       transform="matrix(1.6795964,0,0,1.6795964,355.77309,807.14556)"><path
         d="m 0,0 7.169,-24.636 0.666,-2.29 -2.324,-0.532 -13.224,-3.025 17.804,-16.083 -6.983,11.473 -1.665,2.736 3.139,0.639 16.142,3.286 L 0,0 z m -5.751,11.71 30.356,-41.648 -19.575,-3.985 15.01,-24.662 -32.471,29.331 17.44,3.99 -10.76,36.974 z"
         style="fill:#ffffff;fill-opacity:1;fill-rule:nonzero;stroke:none"
         id="path3105"
         inkscape:connector-curvature="0" /></g><g
       id="g3107"
       transform="matrix(1.6795964,0,0,1.6795964,432.51285,741.38532)"><path
         d="M 0,0 -6.922,32.312 1.214,28.885 2.68,28.267 2.774,29.855 4.581,60.193 13.687,18.038 1.604,20.763 0.248,21.069 0.231,19.677 0,0 z"
         style="fill:#ffffff;fill-opacity:1;fill-rule:nonzero;stroke:none"
         id="path3109"
         inkscape:connector-curvature="0" /></g><g
       id="g3111"
       transform="matrix(1.6795964,0,0,1.6795964,441.27497,828.60224)"><path
         d="m 0,0 -1.318,-22.14 -0.19,-3.173 -2.93,1.233 -6.149,2.59 4.364,-20.371 0.114,9.626 0.033,2.78 2.712,-0.612 L 6.998,-32.404 0,0 z m -1.27,16.536 11.211,-51.911 -13.8,3.113 -0.352,-29.736 -9.479,44.257 10.126,-4.265 2.294,38.542 z"
         style="fill:#ffffff;fill-opacity:1;fill-rule:nonzero;stroke:none"
         id="path3113"
         inkscape:connector-curvature="0" /></g><g
       id="g3115"
       transform="matrix(1.6795964,0,0,1.6795964,485.37092,734.11838)"><path
         d="m 0,0 6.467,26.468 6.679,-7.718 1.243,-1.436 0.661,1.781 7.71,20.702 L 18.136,5.092 8.056,12.615 6.998,13.403 6.386,12.233 0,0 z"
         style="fill:#ffffff;fill-opacity:1;fill-rule:nonzero;stroke:none"
         id="path3117"
         inkscape:connector-curvature="0" /></g><g
       id="g3119"
       transform="matrix(1.6795964,0,0,1.6795964,519.50251,784.54894)"><path
         d="m 0,0 -4.217,-11.323 -1.325,-3.559 -2.484,2.872 -5.253,6.07 -3.75,-15.346 2.096,4.015 1.223,2.342 2.117,-1.58 8.543,-6.378 L 0,0 z m 4.872,19.531 -6.197,-46.513 -11.613,8.669 -10.678,-20.455 9.185,37.596 8.106,-9.366 11.197,30.069 z"
         style="fill:#ffffff;fill-opacity:1;fill-rule:nonzero;stroke:none"
         id="path3121"
         inkscape:connector-curvature="0" /></g><g
       id="g3123"
       transform="matrix(1.6795964,0,0,1.6795964,252.72716,535.01885)"><path
         d="m 0,0 c 2.21,-29.602 48.927,-51.41 107.613,-51.41 58.684,0 107.129,22.922 108.86,52.096"
         style="fill:none;stroke:#ffffff;stroke-width:6.48899984;stroke-linecap:butt;stroke-linejoin:miter;stroke-miterlimit:4;stroke-opacity:1;stroke-dasharray:none"
         id="path3125"
         inkscape:connector-curvature="0" /></g><g
       id="g3127"
       transform="matrix(1.6795964,0,0,1.6795964,439.39028,651.07829)"><path
         d="M 0,0 1.853,-92.448 -9.011,-92.4 0,0 z"
         style="fill:#ffffff;fill-opacity:1;fill-rule:nonzero;stroke:none"
         id="path3129"
         inkscape:connector-curvature="0" /></g><g
       id="g3131"
       transform="matrix(1.6795964,0,0,1.6795964,439.39028,651.07829)"><path
         d="M 0,0 1.853,-92.448 -9.011,-92.4 0,0 z"
         style="fill:none;stroke:#ffffff;stroke-width:10.80000019;stroke-linecap:butt;stroke-linejoin:miter;stroke-miterlimit:4;stroke-opacity:1;stroke-dasharray:none"
         id="path3133"
         inkscape:connector-curvature="0" /></g><g
       id="g3135"
       transform="matrix(1.6795964,0,0,1.6795964,405.09477,610.53518)"><path
         d="m 0,0 c -58.031,-1.185 -91.576,-19.359 -91.576,-48.617 0,-30.011 46.498,-54.339 106.629,-54.339 60.135,0 111.133,24.328 111.133,54.339 0,28.752 -30.159,46.606 -86.782,48.535"
         style="fill:none;stroke:#ffffff;stroke-width:13.5;stroke-linecap:butt;stroke-linejoin:miter;stroke-miterlimit:4;stroke-opacity:1;stroke-dasharray:none"
         id="path3137"
         inkscape:connector-curvature="0" /></g><g
       id="g3139"
       transform="matrix(1.6795964,0,0,1.6795964,256.96227,536.16703)"><path
         d="m 0,0 c -1.805,-29.34 42.632,-53.004 103.365,-53.004 60.735,0 108.778,24.342 107.198,54.807"
         style="fill:none;stroke:#ffffff;stroke-width:6.81799984;stroke-linecap:round;stroke-linejoin:miter;stroke-miterlimit:4;stroke-opacity:1;stroke-dasharray:none"
         id="path3141"
         inkscape:connector-curvature="0" /></g><g
       id="g3143"
       transform="matrix(1.6795964,0,0,1.6795964,405.31615,599.19287)"><path
         d="M 0,0 1.422,13.547 -1.453,13.469 0,0 z"
         style="fill:#ffffff;fill-opacity:1;fill-rule:nonzero;stroke:none"
         id="path3145"
         inkscape:connector-curvature="0" /></g><g
       id="g3147"
       transform="matrix(1.6795964,0,0,1.6795964,470.87467,599.0585)"><path
         d="M 0,0 -1.422,13.547 1.453,13.469 0,0 z"
         style="fill:#ffffff;fill-opacity:1;fill-rule:nonzero;stroke:none"
         id="path3149"
         inkscape:connector-curvature="0" /></g><g
       id="g3151"
       transform="matrix(1.6795964,0,0,1.6795964,604.96357,535.96363)"><path
         d="m 0,0 c -0.488,24.785 -40.014,39.035 -86.331,41.622 1.099,-17.549 2.751,-34.444 5.518,-51.924 25.252,-0.615 32.9,6.086 58.175,5.387 C -19.544,-0.886 0.086,-4.365 0,0"
         style="fill:#b5a382;fill-opacity:1;fill-rule:nonzero;stroke:none"
         id="path3153"
         inkscape:connector-curvature="0" /></g><g
       id="g3155"
       transform="matrix(1.6795964,0,0,1.6795964,263.02864,535.00827)"><path
         d="M 0,0 C 0.488,24.785 40.072,39.104 86.389,41.691 85.291,24.143 83.638,7.248 80.872,-10.233 55.619,-10.848 47.971,-4.147 22.696,-4.846 19.602,-0.816 -0.086,-4.365 0,0"
         style="fill:#b5a382;fill-opacity:1;fill-rule:nonzero;stroke:none"
         id="path3157"
         inkscape:connector-curvature="0" /></g></g></svg>