<?xml version="1.0" encoding="utf-8"?>
<!-- Generator: Adobe Illustrator 17.0.0, SVG Export Plug-In . SVG Version: 6.00 Build 0)  -->
<!DOCTYPE svg PUBLIC "-//W3C//DTD SVG 1.1//EN" "http://www.w3.org/Graphics/SVG/1.1/DTD/svg11.dtd">
<svg version="1.1" id="Layer_1" xmlns="http://www.w3.org/2000/svg" xmlns:xlink="http://www.w3.org/1999/xlink" x="0px" y="0px"
	 width="426px" height="66px" viewBox="0 0 426 66" enable-background="new 0 0 426 66" xml:space="preserve">
<g>
	<path fill="#333333" d="M95.39,20.413c-5.255,0-8.985,1.822-11.358,5.467v-4.323H69.665v41.998h14.367V41.052
		c0-4.533,2.967-6.526,5.976-6.526c3.306,0,5.297,2.245,5.297,6.442v22.588h15.088V36.22
		C110.393,26.558,104.078,20.413,95.39,20.413"/>
	<polygon fill="#333333" points="211.412,39.907 199.503,4.223 177.169,4.223 177.169,63.557 193.273,63.557 193.273,26.431 
		204.007,63.557 211.412,63.557 218.775,63.557 229.508,26.431 229.508,63.557 245.613,63.557 245.613,4.223 223.278,4.223 	"/>
	<path fill="#333333" d="M409.109,20.413c-4.746,0-8.264,1.483-10.638,4.45V2.444h-15.087v61.111h15.087V41.052
		c0-4.619,2.331-6.526,5.255-6.526c3.307,0,5.298,2.245,5.298,6.442v22.588h15.089V36.22
		C424.113,26.558,417.798,20.413,409.109,20.413"/>
	<path fill="#333333" d="M366.13,9.521h-15.087v7.15c0,2.863-2.32,4.885-5.184,4.886h-2.445v13.307h7.629v11.063
		c0,10.297,4.873,17.629,16.825,17.629h10.827V61.53v-3.843v-8.159h-6.929c-3.264,0-5.637-1.399-5.637-5.934v-8.731h9.801h2.765
		V21.556H366.13V9.521z"/>
	<path fill="#333333" d="M33.76,3.121c-18.351,0-31.362,13.054-31.362,30.769S15.409,64.657,33.76,64.657
		c18.351,0,31.362-13.053,31.362-30.768S52.111,3.121,33.76,3.121 M33.76,49.231c-8.646,0-14.621-6.272-14.621-15.342
		c0-9.07,5.975-15.342,14.621-15.342S48.381,24.82,48.381,33.89C48.381,42.959,42.406,49.231,33.76,49.231"/>
	<path fill="#333333" d="M135.686,20.413c-12.926,0-21.825,9.197-21.825,22.504c0,1.427,0.126,2.792,0.336,4.111
		c1.707,10.699,10.122,17.629,22.083,17.629c8.306,0,14.918-2.881,18.986-7.289l-10.341-8.646c-2.288,2.246-5.212,3.392-7.925,3.392
		c-3.984,0-6.526-1.695-7.543-5.086h22.727h4.693c0.169-0.848,0.296-3.053,0.296-4.492C157.131,29.398,148.4,20.413,135.686,20.413
		 M129.499,37.916c0.975-3.263,3.051-4.831,6.272-4.831c3.136,0,5.255,1.568,6.357,4.831H129.499z"/>
	<path fill="#333333" d="M273.142,20.413c-12.987,0-22.58,9.1-22.858,21.571c-0.004,0.187-0.026,0.364-0.026,0.552
		c0,12.756,9.705,22.121,22.885,22.121c13.181,0,22.886-9.365,22.886-22.121c0-0.188-0.023-0.365-0.027-0.552
		C295.722,29.514,286.129,20.413,273.142,20.413 M273.142,50.63c-4.323,0-7.459-3.391-7.459-8.094c0-0.188,0.013-0.369,0.022-0.552
		c0.236-4.414,3.285-7.543,7.437-7.543c4.151,0,7.199,3.129,7.436,7.543c0.009,0.183,0.022,0.364,0.022,0.552
		C280.601,47.239,277.465,50.63,273.142,50.63"/>
	<path fill="#333333" d="M325.34,20.413c-5.256,0-8.985,1.822-11.358,5.467v-4.323h-14.367v41.998h14.367V41.052
		c0-4.533,2.967-6.526,5.976-6.526c3.305,0,5.297,2.245,5.297,6.442v22.588h15.088V36.22
		C340.342,26.558,334.027,20.413,325.34,20.413"/>
	<path fill="#676767" d="M33.76,3.121c-18.351,0-31.362,13.054-31.362,30.768h16.741c0-9.069,5.975-15.341,14.621-15.341
		s14.621,6.272,14.621,15.341h16.741C65.122,16.175,52.111,3.121,33.76,3.121"/>
	<polygon fill="#676767" points="84.032,21.557 69.665,21.557 69.665,63.556 84.032,63.556 84.032,41.052 84.032,25.88 	"/>
	<path fill="#676767" d="M135.688,20.413c-12.927,0-21.826,9.196-21.826,22.504c0,1.428,0.126,2.792,0.337,4.111h15.259h22.727
		h4.693c0.169-0.848,0.296-3.053,0.296-4.493C157.131,29.398,148.401,20.413,135.688,20.413 M129.499,37.916
		c0.975-3.263,3.051-4.832,6.272-4.832c3.136,0,5.255,1.569,6.357,4.832H129.499z"/>
	<polygon fill="#676767" points="199.503,4.223 177.169,4.223 177.169,63.556 193.273,63.556 193.273,26.43 204.007,63.556 
		211.412,63.556 211.412,39.907 	"/>
	<path fill="#676767" d="M273.142,20.413c-12.987,0-22.58,9.101-22.858,21.57h15.422c0.238-4.412,3.285-7.542,7.437-7.542
		c4.151,0,7.199,3.13,7.436,7.542H296C295.722,29.514,286.129,20.413,273.142,20.413"/>
	<polygon fill="#676767" points="398.473,2.443 383.385,2.443 383.385,63.557 398.473,63.557 398.473,41.052 398.473,24.863 	"/>
	<path fill="#676767" d="M351.043,45.926c0,10.298,4.873,17.631,16.824,17.631h10.827V61.53v-3.843v-8.159h-6.928
		c-3.263,0-5.637-1.399-5.637-5.934v-8.732h-15.087V45.926z"/>
	<path fill="#676767" d="M325.34,20.413c-5.256,0-8.985,1.822-11.358,5.467v15.172c0-4.533,2.967-6.527,5.976-6.527
		c3.305,0,5.297,2.246,5.297,6.443v22.588h15.088V36.222C340.342,26.558,334.027,20.413,325.34,20.413"/>
</g>
</svg>
